<svg xmlns="http://www.w3.org/2000/svg" viewBox="0 0 920 620" role="img" aria-labelledby="title desc">
  <title id="title">Paper lineage diagram</title>
  <desc id="desc">A diagram linking prior works, the assigned paper, successor papers, and the selected frontier target paper.</desc>
  <defs>
    <linearGradient id="panel" x1="0%" y1="0%" x2="100%" y2="100%">
      <stop offset="0%" stop-color="#fffaf1"/>
      <stop offset="100%" stop-color="#e8f3ef"/>
    </linearGradient>
    <linearGradient id="frontier" x1="0%" y1="0%" x2="100%" y2="100%">
      <stop offset="0%" stop-color="#0b7a75"/>
      <stop offset="100%" stop-color="#245b89"/>
    </linearGradient>
    <filter id="shadow" x="-10%" y="-10%" width="120%" height="130%">
      <feDropShadow dx="0" dy="18" stdDeviation="16" flood-color="#172026" flood-opacity="0.14"/>
    </filter>
  </defs>

  <rect width="920" height="620" rx="28" fill="url(#panel)"/>
  <path d="M80 454 C210 378 230 250 360 260 C505 271 502 420 650 385 C755 360 790 250 848 178" fill="none" stroke="#d7c9ae" stroke-width="18" stroke-linecap="round"/>
  <path d="M80 454 C210 378 230 250 360 260 C505 271 502 420 650 385 C755 360 790 250 848 178" fill="none" stroke="#172026" stroke-width="3" stroke-dasharray="8 12" stroke-linecap="round" opacity="0.35"/>

  <g filter="url(#shadow)">
    <rect x="62" y="392" width="190" height="112" rx="16" fill="#ffffff"/>
    <text x="88" y="430" font-family="Inter, Arial, sans-serif" font-size="18" font-weight="800" fill="#172026">Prior Work</text>
    <text x="88" y="462" font-family="Inter, Arial, sans-serif" font-size="14" fill="#5b6871">Baseline idea</text>
    <circle cx="210" cy="450" r="18" fill="#245b89"/>
  </g>

  <g filter="url(#shadow)">
    <rect x="276" y="190" width="210" height="128" rx="16" fill="#ffffff"/>
    <text x="306" y="230" font-family="Inter, Arial, sans-serif" font-size="18" font-weight="800" fill="#172026">DiffTrack</text>
    <text x="306" y="262" font-family="Inter, Arial, sans-serif" font-size="14" fill="#5b6871">Target paper</text>
    <circle cx="438" cy="254" r="18" fill="#c75146"/>
  </g>

  <g filter="url(#shadow)">
    <rect x="520" y="326" width="190" height="112" rx="16" fill="#ffffff"/>
    <text x="548" y="364" font-family="Inter, Arial, sans-serif" font-size="18" font-weight="800" fill="#172026">CAG</text>
    <text x="548" y="396" font-family="Inter, Arial, sans-serif" font-size="14" fill="#5b6871">Attention control</text>
    <circle cx="668" cy="382" r="18" fill="#c89b31"/>
  </g>

  <g filter="url(#shadow)">
    <rect x="642" y="98" width="218" height="136" rx="18" fill="url(#frontier)"/>
    <text x="674" y="142" font-family="Inter, Arial, sans-serif" font-size="20" font-weight="800" fill="#ffffff">Video DiT Frontier</text>
    <text x="674" y="176" font-family="Inter, Arial, sans-serif" font-size="14" fill="#e7fffb">Tracking + motion</text>
    <circle cx="816" cy="166" r="20" fill="#ffffff" opacity="0.94"/>
    <path d="M808 166 l7 7 l15 -19" fill="none" stroke="#0b7a75" stroke-width="5" stroke-linecap="round" stroke-linejoin="round"/>
  </g>

  <g opacity="0.7">
    <circle cx="120" cy="115" r="8" fill="#c75146"/>
    <circle cx="170" cy="155" r="5" fill="#245b89"/>
    <circle cx="505" cy="96" r="7" fill="#c89b31"/>
    <circle cx="780" cy="506" r="6" fill="#0b7a75"/>
    <circle cx="360" cy="498" r="5" fill="#c75146"/>
  </g>
</svg>
